<?xml version="1.0" encoding="UTF-8"?>
<svg version="1.1" xmlns="http://www.w3.org/2000/svg" width="512" height="512">
<path d="M0 0 C35.29538693 12.12171086 74.53514602 32.30427693 92.26171875 66.87109375 C92.61234375 67.63421875 92.96296875 68.39734375 93.32421875 69.18359375 C93.9083252 69.00691162 94.49243164 68.83022949 95.09423828 68.64819336 C112.66982625 63.35136994 130.20137606 58.23456397 148.32421875 55.18359375 C149.608125 54.95800781 150.89203125 54.73242188 152.21484375 54.5 C190.43179287 48.89123722 229.58775666 55.59160211 265.58203125 68.63623047 C267.33786779 69.28350582 267.33786779 69.28350582 269.32421875 69.18359375 C269.67613281 68.49394531 270.02804687 67.80429688 270.390625 67.09375 C289.75854093 30.22897007 331.17108544 10.02516412 369.28125 -2.02734375 C386.42406639 -7.23116666 403.94394591 -10.81896109 421.88671875 -11.19140625 C422.63727539 -11.21759033 423.38783203 -11.24377441 424.16113281 -11.27075195 C429.32052358 -11.28644636 432.22911362 -10.21111589 436.32421875 -6.81640625 C446.79358863 14.12233351 430.49776219 56.6380838 423.89624023 77.01391602 C412.94765885 109.24183109 395.33881545 140.40076849 364.2734375 156.45703125 C361.67183933 157.42676524 359.06509024 157.78927937 356.32421875 158.18359375 C356.86949219 159.56804687 356.86949219 159.56804687 357.42578125 160.98046875 C367.10024642 185.90919643 373.53973858 211.17825677 374.51660156 237.99975586 C375.03653367 249.55026016 377.91263974 259.53824048 383.76171875 269.49609375 C395.69439796 291.02429967 398.85634406 316.94446819 392.65234375 340.79296875 C387.61074731 358.33772436 377.84158382 373.24433204 366.32421875 387.18359375 C365.67066406 387.98152344 365.01710938 388.77945312 364.34375 389.6015625 C360.97896184 393.58233018 357.3717198 397.06022948 353.390625 400.421875 C352.03766655 401.57534241 350.71037375 402.75977955 349.4140625 403.9765625 C330.16568819 421.96396432 305.92354485 434.30786988 281.32421875 443.18359375 C280.6070166 443.45220215 279.88981445 443.72081055 279.15087891 443.99755859 C211.4235964 469.28802737 127.90420917 464.87535632 62.32421875 435.55859375 C41.98034889 426.13651629 21.68104982 413.72171952 6.32421875 397.18359375 C5.49921875 396.35859375 4.67421875 395.53359375 3.82421875 394.68359375 C2.99921875 393.85859375 2.17421875 393.03359375 1.32421875 392.18359375 C0.83695312 391.74273437 0.3496875 391.301875 -0.15234375 390.84765625 C-18.08970758 374.10044926 -31.96636831 347.70818643 -32.859375 323.03125 C-33.30596521 302.31616323 -29.56227585 284.06050934 -19.2421875 266.09277344 C-13.50957062 255.90983556 -12.29625939 246.10027392 -11.80078125 234.55859375 C-10.28451869 207.92030827 -3.41474285 182.91088632 6.32421875 158.18359375 C5.4528125 158.07144531 4.58140625 157.95929688 3.68359375 157.84375 C-6.12353407 155.91653535 -14.36786493 149.71716132 -21.67578125 143.18359375 C-22.413125 142.52875 -23.15046875 141.87390625 -23.91015625 141.19921875 C-56.30937444 110.63825407 -73.12328636 55.20478207 -74.94921875 11.765625 C-74.98859906 9.84255314 -75.02236498 7.91935887 -75.05078125 5.99609375 C-75.08816406 5.02478516 -75.12554687 4.05347656 -75.1640625 3.05273438 C-75.25191937 -4.0685527 -75.25191937 -4.0685527 -72.27734375 -7.9296875 C-55.99550479 -19.73768783 -16.87851642 -5.54198025 0 0 Z " fill="#FDEE65" transform="translate(74.67578125,31.81640625)"/>
<path d="M0 0 C35.29538693 12.12171086 74.53514602 32.30427693 92.26171875 66.87109375 C92.61234375 67.63421875 92.96296875 68.39734375 93.32421875 69.18359375 C93.9083252 69.00691162 94.49243164 68.83022949 95.09423828 68.64819336 C112.66982625 63.35136994 130.20137606 58.23456397 148.32421875 55.18359375 C149.608125 54.95800781 150.89203125 54.73242188 152.21484375 54.5 C190.43179287 48.89123722 229.58775666 55.59160211 265.58203125 68.63623047 C267.33786779 69.28350582 267.33786779 69.28350582 269.32421875 69.18359375 C269.67613281 68.49394531 270.02804687 67.80429688 270.390625 67.09375 C289.75854093 30.22897007 331.17108544 10.02516412 369.28125 -2.02734375 C386.42406639 -7.23116666 403.94394591 -10.81896109 421.88671875 -11.19140625 C422.63727539 -11.21759033 423.38783203 -11.24377441 424.16113281 -11.27075195 C429.32052358 -11.28644636 432.22911362 -10.21111589 436.32421875 -6.81640625 C446.79358863 14.12233351 430.49776219 56.6380838 423.89624023 77.01391602 C412.94765885 109.24183109 395.33881545 140.40076849 364.2734375 156.45703125 C361.67183933 157.42676524 359.06509024 157.78927937 356.32421875 158.18359375 C356.86949219 159.56804687 356.86949219 159.56804687 357.42578125 160.98046875 C367.10024642 185.90919643 373.53973858 211.17825677 374.51660156 237.99975586 C375.03653367 249.55026016 377.91263974 259.53824048 383.76171875 269.49609375 C395.69439796 291.02429967 398.85634406 316.94446819 392.65234375 340.79296875 C387.61074731 358.33772436 377.84158382 373.24433204 366.32421875 387.18359375 C365.67066406 387.98152344 365.01710938 388.77945312 364.34375 389.6015625 C360.97896184 393.58233018 357.3717198 397.06022948 353.390625 400.421875 C352.03766655 401.57534241 350.71037375 402.75977955 349.4140625 403.9765625 C330.16568819 421.96396432 305.92354485 434.30786988 281.32421875 443.18359375 C280.6070166 443.45220215 279.88981445 443.72081055 279.15087891 443.99755859 C211.4235964 469.28802737 127.90420917 464.87535632 62.32421875 435.55859375 C41.98034889 426.13651629 21.68104982 413.72171952 6.32421875 397.18359375 C5.49921875 396.35859375 4.67421875 395.53359375 3.82421875 394.68359375 C2.99921875 393.85859375 2.17421875 393.03359375 1.32421875 392.18359375 C0.83695312 391.74273437 0.3496875 391.301875 -0.15234375 390.84765625 C-18.08970758 374.10044926 -31.96636831 347.70818643 -32.859375 323.03125 C-33.30596521 302.31616323 -29.56227585 284.06050934 -19.2421875 266.09277344 C-13.50957062 255.90983556 -12.29625939 246.10027392 -11.80078125 234.55859375 C-10.28451869 207.92030827 -3.41474285 182.91088632 6.32421875 158.18359375 C5.4528125 158.07144531 4.58140625 157.95929688 3.68359375 157.84375 C-6.12353407 155.91653535 -14.36786493 149.71716132 -21.67578125 143.18359375 C-22.413125 142.52875 -23.15046875 141.87390625 -23.91015625 141.19921875 C-56.30937444 110.63825407 -73.12328636 55.20478207 -74.94921875 11.765625 C-74.98859906 9.84255314 -75.02236498 7.91935887 -75.05078125 5.99609375 C-75.08816406 5.02478516 -75.12554687 4.05347656 -75.1640625 3.05273438 C-75.25191937 -4.0685527 -75.25191937 -4.0685527 -72.27734375 -7.9296875 C-55.99550479 -19.73768783 -16.87851642 -5.54198025 0 0 Z M16.32421875 31.18359375 C-0.29979761 52.5940916 -8.36093697 87.88159503 -10.67578125 114.18359375 C-10.81628906 115.04984375 -10.95679688 115.91609375 -11.1015625 116.80859375 C-11.52187101 120.52236444 -11.33920105 122.34438299 -8.98046875 125.328125 C-4.11132467 129.90037005 1.35819371 133.24050683 7.32421875 136.18359375 C8.28908203 136.74433594 8.28908203 136.74433594 9.2734375 137.31640625 C11.74029842 138.35953601 13.6722388 138.33092597 16.32421875 138.18359375 C16.88689453 136.75466797 16.88689453 136.75466797 17.4609375 135.296875 C17.97720289 134.02967814 18.49416738 132.76276593 19.01171875 131.49609375 C19.25599609 130.87025391 19.50027344 130.24441406 19.75195312 129.59960938 C21.57357097 125.19544471 23.61446812 122.18404456 27.32421875 119.18359375 C30.43528609 118.27797483 33.17218863 118.48250929 36.32421875 119.18359375 C39.38671875 121.24609375 39.38671875 121.24609375 41.32421875 124.18359375 C42.45311323 131.39115082 38.97620462 137.05076089 35.94921875 143.43359375 C34.83856903 145.85672448 33.7326086 148.28117523 32.63671875 150.7109375 C32.35736481 151.32970261 32.07801086 151.94846771 31.79019165 152.58598328 C23.923738 170.15626145 17.71922324 188.44599689 13.32421875 207.18359375 C13.06753418 208.2511792 13.06753418 208.2511792 12.80566406 209.34033203 C10.32788949 219.98454508 9.89953082 230.5706514 9.78979492 241.48120117 C9.51175816 257.03867368 3.73984811 270.42012887 -3.90893555 283.75683594 C-6.36016762 288.14685156 -7.61915824 292.26352354 -8.67578125 297.18359375 C-3.92236435 295.30148577 0.77937789 293.30416294 5.484375 291.3046875 C17.41603661 286.59438918 30.77853903 288.93216745 42.38671875 293.43359375 C47.67171624 295.72733631 52.0035791 298.38894501 56.32421875 302.18359375 C56.9171875 302.68375 57.51015625 303.18390625 58.12109375 303.69921875 C67.55715318 312.30022867 72.90280343 324.04719545 73.63671875 336.67578125 C74.2106762 352.62860974 70.18352228 366.77067619 59.26171875 378.93359375 C52.74057298 384.96565358 43.77871019 389.64853315 35.32421875 392.18359375 C52.05279667 410.02953851 79.34464776 420.37240166 102.32421875 427.18359375 C103.21834473 427.44865723 104.1124707 427.7137207 105.03369141 427.98681641 C129.39757586 435.01021941 153.63696077 437.54412367 178.88671875 437.55859375 C179.79844849 437.56058777 180.71017822 437.56258179 181.64953613 437.56463623 C232.76178223 437.55195901 285.11200402 425.83457466 326.32421875 394.18359375 C326.65421875 393.52359375 326.98421875 392.86359375 327.32421875 392.18359375 C326.71835937 391.96445312 326.1125 391.7453125 325.48828125 391.51953125 C310.89510062 385.99657366 300.55690424 378.21930024 293.32421875 364.18359375 C287.77155756 350.85720689 287.20123161 335.70985551 292.05078125 322.08984375 C297.61244984 309.39695592 306.18623982 299.46481261 318.859375 293.52734375 C332.27389163 288.32487056 346.21825825 286.77099001 359.89453125 292.09375 C362.75559453 293.37708868 365.54958131 294.72325826 368.32421875 296.18359375 C368.98421875 296.18359375 369.64421875 296.18359375 370.32421875 296.18359375 C369.77071597 290.93345712 367.99465185 287.08426828 365.57421875 282.49609375 C364.84517502 281.07091507 364.11731217 279.64513171 363.390625 278.21875 C363.03629395 277.52797363 362.68196289 276.83719727 362.31689453 276.12548828 C356.03531374 263.83731965 352.99505458 252.77068357 352.94921875 238.93359375 C352.67545476 225.90111096 350.44731989 213.80361923 347.32421875 201.18359375 C346.99972496 199.80735649 346.67547582 198.4310615 346.3515625 197.0546875 C341.01691495 175.64681615 332.62936796 153.51899792 322.1730957 134.0390625 C320.71619288 130.85457546 320.75920361 127.57368459 321.32421875 124.18359375 C323.11785786 121.37355915 324.3430281 119.67418907 327.32421875 118.18359375 C332.05642379 117.7629533 334.57262945 118.26005795 338.32421875 121.18359375 C340.19409089 123.95005031 341.66178404 126.87950404 343.13671875 129.87109375 C343.54341797 130.66837891 343.95011719 131.46566406 344.36914062 132.28710938 C345.36656511 134.24675513 346.35092973 136.21188009 347.32421875 138.18359375 C355.39380232 136.23346921 361.57474182 133.00615293 368.32421875 128.18359375 C369.01644531 127.77882813 369.70867187 127.3740625 370.421875 126.95703125 C372.51331428 125.48016069 373.35718129 124.56955534 374.32421875 122.18359375 C374.47482835 116.70688096 373.40251591 111.52185657 372.32421875 106.18359375 C372.1648584 105.33555176 372.00549805 104.48750977 371.84130859 103.61376953 C367.11444835 78.58196181 360.35789365 52.72498128 346.32421875 31.18359375 C325.37901255 37.25183106 301.01681418 56.22155175 290.21484375 75.125 C289.12568387 77.26865567 289.12568387 77.26865567 289.32421875 80.18359375 C290.44441406 80.7146875 291.56460937 81.24578125 292.71875 81.79296875 C294.19166655 82.50597294 295.66430857 83.21954445 297.13671875 83.93359375 C297.87470703 84.28164062 298.61269531 84.6296875 299.37304688 84.98828125 C306.36241341 88.40389928 306.36241341 88.40389928 308.32421875 92.18359375 C308.86542685 97.144668 308.46956112 100.25191579 305.32421875 104.18359375 C302.07925526 106.5333949 299.24894083 106.48947737 295.32421875 106.18359375 C292.3359375 104.78515625 292.3359375 104.78515625 289.01171875 102.80859375 C244.53420744 77.76553753 187.36681225 67.02201962 137.32421875 79.18359375 C136.30618164 79.43028809 135.28814453 79.67698242 134.23925781 79.93115234 C113.95863182 84.99043867 94.74269289 91.96415434 76.22412109 101.67871094 C70.55991364 104.54376378 65.72608217 106.32921726 59.32421875 105.18359375 C55.95246664 103.07624868 55.44967634 101.63524109 54.38671875 97.80859375 C54.31194452 93.47168858 54.93544288 91.79453402 57.32421875 88.18359375 C59.89891764 86.37026343 62.64477836 85.09558708 65.51171875 83.80859375 C66.63610352 83.27685547 66.63610352 83.27685547 67.78320312 82.734375 C69.62245348 81.86746719 71.47235474 81.02321909 73.32421875 80.18359375 C71.4114211 67.22666681 58.71859707 57.14652577 48.82885742 49.73486328 C42.18350335 44.86997704 35.21652257 40.65319056 28.07421875 36.55859375 C26.67973511 35.75869019 26.67973511 35.75869019 25.25708008 34.94262695 C21.03512668 32.24380542 21.03512668 32.24380542 16.32421875 31.18359375 Z " fill="#434E52" transform="translate(74.67578125,31.81640625)"/>
<path d="M0 0 C2.10084701 -0.01718633 4.2001085 -0.06106997 6.30053711 -0.10522461 C7.64232244 -0.1153545 8.98412112 -0.12386968 10.32592773 -0.13061523 C12.15281128 -0.15248901 12.15281128 -0.15248901 14.01660156 -0.17480469 C17.91449401 0.38203709 19.53314351 1.55821466 22.30639648 4.29516602 C23.91824505 7.51886315 23.75407156 10.79935038 23.30639648 14.29516602 C19.79472 21.47120058 12.75735447 27.67686655 6.30639648 32.29516602 C18.95249753 41.53309799 30.51914652 42.85123862 45.85717773 40.82641602 C51.91233831 39.53382773 55.72055245 37.471852 60.43530273 33.54125977 C63.86361899 31.25810134 66.29424338 31.637436 70.30639648 32.29516602 C73.70529791 34.36406253 76.19576659 36.40796139 77.30639648 40.29516602 C77.41893643 46.14724304 75.33452239 49.33320518 71.47045898 53.43579102 C64.36503197 59.54081495 55.39756651 62.0559466 46.30639648 63.29516602 C46.1936438 64.25386597 46.1936438 64.25386597 46.07861328 65.23193359 C45.72556703 68.19159797 45.359791 71.14956362 44.99389648 74.10766602 C44.87594727 75.11249023 44.75799805 76.11731445 44.63647461 77.15258789 C42.76335478 92.08951779 38.27235575 109.24314101 26.58374023 119.68188477 C16.70891805 126.67725623 7.2903726 129.30101533 -4.69360352 128.29516602 C-13.09275632 126.556688 -19.45871561 123.13261087 -25.69360352 117.29516602 C-26.25821289 116.77180664 -26.82282227 116.24844727 -27.40454102 115.70922852 C-39.54871819 103.07188679 -41.00017477 82.65609268 -40.76391602 66.08422852 C-40.74071289 65.16383789 -40.71750977 64.24344727 -40.69360352 63.29516602 C-41.74547852 63.23329102 -42.79735352 63.17141602 -43.88110352 63.10766602 C-54.39029576 61.72880037 -63.71129151 57.33201485 -70.69360352 49.29516602 C-72.49046151 46.36611851 -72.69830967 45.42458517 -72.56860352 41.85766602 C-71.62005885 37.99573416 -70.43947078 36.12424138 -67.69360352 33.29516602 C-64.42062447 31.65867649 -61.21763132 31.62273668 -57.69360352 32.29516602 C-55.56796945 33.59188487 -53.78912696 35.02131112 -51.94360352 36.68969727 C-45.55587951 41.2476045 -39.27733693 41.75129733 -31.69360352 41.60766602 C-30.41743164 41.6125 -30.41743164 41.6125 -29.11547852 41.61743164 C-21.80778912 41.55578702 -15.28429863 40.57939664 -8.88110352 36.79516602 C-7.78862305 36.16094727 -7.78862305 36.16094727 -6.67407227 35.51391602 C-4.9906152 34.47794244 -3.33830177 33.39163152 -1.69360352 32.29516602 C-2.51344727 31.55911133 -3.33329102 30.82305664 -4.17797852 30.06469727 C-5.26669891 29.0792176 -6.35523058 28.09352941 -7.44360352 27.10766602 C-7.98243164 26.62491211 -8.52125977 26.1421582 -9.07641602 25.64477539 C-18.46227454 17.11737954 -18.46227454 17.11737954 -19.00610352 10.48266602 C-18.97592376 7.16289274 -18.69970232 6.30472081 -16.81860352 3.35766602 C-12.17099526 -1.15324788 -6.10529175 0.0348143 0 0 Z " fill="#404B4F" transform="translate(253.693603515625,298.704833984375)"/>
<path d="M0 0 C9.08684714 5.51757099 13.94763671 12.39369137 17.27734375 22.3828125 C18.30933922 32.62905326 16.81470092 41.47167128 10.4453125 49.76953125 C3.66878912 57.00049604 -5.00000833 61.2264103 -14.97265625 61.7578125 C-24.50858825 61.45020179 -31.77509723 57.40856869 -38.5546875 50.8984375 C-45.0011771 43.4181865 -47.11038015 35.48183386 -46.9921875 25.80078125 C-46.26005807 16.51653121 -41.69875184 9.39668801 -34.72265625 3.3828125 C-24.44082104 -3.93978673 -11.57008134 -5.50589561 0 0 Z " fill="#495458" transform="translate(174.72265625,237.6171875)"/>
<path d="M0 0 C9.08684714 5.51757099 13.94763671 12.39369137 17.27734375 22.3828125 C18.30933922 32.62905326 16.81470092 41.47167128 10.4453125 49.76953125 C3.66043823 57.00940696 -4.62281942 60.88282587 -14.53515625 61.6953125 C-25.06922577 61.3489311 -32.89118716 56.63916974 -39.97265625 49.1328125 C-45.66021428 42.01559507 -47.43660842 34.57928891 -47.09765625 25.5546875 C-46.0125518 16.37651235 -41.68291887 9.3830389 -34.72265625 3.3828125 C-24.44082104 -3.93978673 -11.57008134 -5.50589561 0 0 Z " fill="#3D484C" transform="translate(366.72265625,237.6171875)"/>
<path d="M0 0 C7.81431306 5.20587335 13.22521006 11.99277172 16 21 C17.36737349 30.6463927 16.11556289 39.2239501 10.421875 47.21484375 C5.26907151 53.44695068 -0.15056605 57.8217341 -8 60 C-11.25390625 60.30078125 -11.25390625 60.30078125 -14.5625 60.3125 C-15.65691406 60.32925781 -16.75132813 60.34601563 -17.87890625 60.36328125 C-23.53270551 59.70520449 -26.49790728 56.83290207 -29.9375 52.5 C-33.95444811 47.29228678 -37.08578877 41.88325977 -40 36 C-40.56203125 34.89785156 -41.1240625 33.79570312 -41.703125 32.66015625 C-46.6254006 22.62009411 -46.6254006 22.62009411 -46 16 C-42.46398475 7.74929775 -35.21141661 1.18744537 -27.125 -2.4375 C-17.73032987 -5.74568415 -8.87566379 -4.32073871 0 0 Z " fill="#E7504C" transform="translate(112,345)"/>
<path d="M0 0 C6.70690065 3.69722763 14.65570173 9.83150578 16.9375 17.4375 C17.05875646 24.20651363 14.88462818 29.76649269 11.9375 35.75 C11.53885742 36.5737915 11.14021484 37.39758301 10.72949219 38.24633789 C6.43303117 46.85863612 1.21494432 56.13608006 -7.0625 61.4375 C-14.99245589 62.75160698 -22.86247947 62.20306457 -29.8515625 58.03515625 C-37.79509535 52.29504152 -42.53383968 46.0277647 -45.0625 36.4375 C-46.31053468 27.08276216 -44.94134952 19.05479762 -39.5546875 11.25390625 C-30.0282085 -0.46587838 -14.50940018 -5.96695895 0 0 Z " fill="#E43C38" transform="translate(429.0625,343.5625)"/>
<path d="M0 0 C5.15012129 1.63390443 5.15012129 1.63390443 10.375 3 C11.26350291 16.38677714 9.93183126 31.85642152 1 42.58984375 C-4.11328646 47.02709474 -8.13892566 47.54238892 -14.75 47.33984375 C-19.50834108 46.7773768 -21.92444588 44.98886646 -24.984375 41.41015625 C-33.0031485 30.25462723 -31.99711141 16.05146321 -31.625 3 C-30.83996094 2.81824219 -30.05492187 2.63648438 -29.24609375 2.44921875 C-22.32814693 0.84937913 -22.32814693 0.84937913 -15.75 -1.75 C-10.33077886 -3.91768846 -5.37818471 -1.71295813 0 0 Z " fill="#E54542" transform="translate(266.625,358)"/>
<path d="M0 0 C5.15012129 1.63390443 5.15012129 1.63390443 10.375 3 C10.40212351 5.39591038 10.4218982 7.79150957 10.4375 10.1875 C10.44587891 10.86103516 10.45425781 11.53457031 10.46289062 12.22851562 C10.48106538 15.95434131 10.26799392 19.3788042 9.375 23 C8.28960937 22.65066406 7.20421875 22.30132812 6.0859375 21.94140625 C4.64069339 21.48155585 3.19537703 21.02193245 1.75 20.5625 C1.03714844 20.33240234 0.32429688 20.10230469 -0.41015625 19.86523438 C-7.7268636 17.54939581 -12.28336433 16.46456631 -19.6875 19.4375 C-24.20361947 21.2370829 -26.66533328 22 -31.625 22 C-31.625 15.73 -31.625 9.46 -31.625 3 C-28.8715625 2.3503125 -28.8715625 2.3503125 -26.0625 1.6875 C-22.44198239 0.7983247 -19.09890039 -0.10956798 -15.75 -1.75 C-10.33077886 -3.91768846 -5.37818471 -1.71295813 0 0 Z " fill="#D0413E" transform="translate(266.625,358)"/>
<path d="M0 0 C7.75596496 5.16700201 13.14543277 12.07463367 16 21 C15.64453125 23.35546875 15.64453125 23.35546875 15 25 C14.5875 24.41992188 14.175 23.83984375 13.75 23.2421875 C7.67990868 15.03130504 1.26117141 9.04541623 -9 7 C-17.73544608 6.00796196 -25.15887251 7.74448712 -32.3125 12.875 C-37.31250655 16.90278306 -40.29276057 21.17943522 -43 27 C-45.28291176 24.62196692 -45.98389256 23.09127548 -46.5625 19.8125 C-45.42555206 12.1065195 -40.09209055 6.3283725 -34.1953125 1.5078125 C-23.30176214 -5.97423454 -11.68701592 -5.68932569 0 0 Z " fill="#E8726F" transform="translate(112,345)"/>
<path d="M0 0 C4.51251718 2.4413423 8.27222817 5.88208646 11.9375 9.4375 C11.6075 10.0975 11.2775 10.7575 10.9375 11.4375 C9.24479167 10.42838542 7.55208333 9.41927083 5.859375 8.41015625 C-1.00170919 4.93777828 -10.78233513 5.37297446 -18.09375 7.19140625 C-27.33855453 10.74174534 -32.4057877 16.30729694 -36.875 24.9375 C-39.78756268 33.39386095 -38.76101559 43.08392782 -36.0625 51.4375 C-41.89034467 46.58096278 -44.53622429 40.77528763 -45.44921875 33.25 C-45.7705537 23.85372285 -43.83657084 16.52161854 -37.875 9.1875 C-28.22436473 -1.08844641 -13.50825131 -5.55523867 0 0 Z " fill="#E7625F" transform="translate(429.0625,343.5625)"/>
<path d="M0 0 C4.12721653 1.82365381 6.17634619 3.87278347 8 8 C8.43597191 11.48777532 8.2345205 13.46924308 6.8125 16.6875 C3.98901101 20.2898825 1.55837248 21.80520344 -3 22.375 C-6.42422442 21.94697195 -8.25223913 21.06082066 -11 19 C-13.81725233 14.7741215 -13.79958384 10.96375312 -13 6 C-9.10297732 0.9748918 -6.28067161 -0.4926017 0 0 Z " fill="#F7F7F8" transform="translate(346,245)"/>
<path d="M0 0 C2.70567626 1.82339052 4.53728718 3.07457436 6 6 C6.57791538 13.0505676 6.57791538 13.0505676 4.25 16.875 C0.81484084 20.11931699 -0.62652203 21.02497233 -5.4375 20.9375 C-9.64827101 19.82940237 -11.25210722 18.31363542 -14 15 C-15.55024464 11.89951072 -15.28992015 9.42105782 -15 6 C-10.96884399 -0.47864359 -7.37458466 -1.8113015 0 0 Z " fill="#F9F9F9" transform="translate(175,246)"/>
<path d="M0 0 C6.6 1.98 13.2 3.96 20 6 C20 10.95 20 15.9 20 21 C15.09312847 17.0060348 10.55729437 12.6959047 6.0625 8.25 C5.47057861 7.67096924 4.87865723 7.09193848 4.26879883 6.49536133 C2.80590875 5.03589071 1.39785485 3.52187506 0 2 C0 1.34 0 0.68 0 0 Z " fill="#EADB5F" transform="translate(193,356)"/>
</svg>
